<svg width="16" height="16" viewBox="0 0 16 16" fill="none" xmlns="http://www.w3.org/2000/svg">
<rect width="16" height="16" fill="#3145FF"/>
<path d="M7.1368 13.0912C7.1368 12.6942 7.1368 12.2994 7.1368 11.9069C7.1368 11.5188 7.1368 11.095 7.1368 10.6356L7.14326 10.4683V5.97857C7.14326 5.36298 7.24454 4.88568 7.4471 4.54667C7.64966 4.20765 7.91687 3.97123 8.24872 3.83741C8.58488 3.70359 8.9469 3.63668 9.33478 3.63668C9.97262 3.63668 10.5157 3.77719 10.9639 4.05822C11.4164 4.33478 11.7612 4.7251 11.9982 5.22916C12.2396 5.73322 12.3602 6.32427 12.3602 7.00231C12.3602 7.65803 12.2331 8.26024 11.9788 8.80891C11.7245 9.35758 11.3302 9.79919 10.7958 10.1337C10.2657 10.4683 9.58259 10.6356 8.7465 10.6356H7.16266C6.37397 10.6356 5.71889 10.4795 5.19741 10.1672C4.67592 9.85049 4.28374 9.4178 4.02084 8.86913C3.76225 8.31599 3.63296 7.68257 3.63296 6.96885C3.63296 6.70121 3.64805 6.4291 3.67821 6.15253C3.71269 5.87151 3.76225 5.59271 3.8269 5.31614C3.89586 5.03958 3.98421 4.7697 4.09195 4.50652C4.19969 4.24334 4.32683 3.9913 4.47337 3.75042L6.14771 3.80395C5.95377 4.10728 5.79 4.44184 5.6564 4.80762C5.5271 5.1734 5.42798 5.54364 5.35902 5.91835C5.29438 6.28859 5.26205 6.63429 5.26205 6.95547C5.26205 7.42385 5.32454 7.832 5.44953 8.17994C5.57882 8.52342 5.78138 8.78883 6.0572 8.97618C6.33303 9.15908 6.69505 9.25052 7.14326 9.25052H8.76589C9.24428 9.25052 9.62353 9.15461 9.90367 8.9628C10.1881 8.76653 10.3928 8.49888 10.5178 8.15987C10.6428 7.82085 10.7053 7.43946 10.7053 7.01569C10.7053 6.58746 10.6579 6.22391 10.5631 5.92504C10.4682 5.62617 10.3303 5.39867 10.1493 5.24254C9.96832 5.08196 9.74852 5.00166 9.48993 5.00166C9.23566 5.00166 9.05034 5.09757 8.93397 5.28938C8.82192 5.47673 8.76589 5.78675 8.76589 6.21944V10.4683L8.77236 10.6356C8.77236 11.0638 8.77236 11.4697 8.77236 11.8534C8.77236 12.237 8.77236 12.634 8.77236 13.0444L7.1368 13.0912Z" fill="white"/>
</svg>
